<?xml version="1.0" encoding="UTF-8"?>
<svg viewBox="0 0 620.37 481.19" xmlns="http://www.w3.org/2000/svg">
 <g fill="#f4e489">
  <path d="m2.4186 157.72c0 35.765 29.927 169.86 37.433 200.97 5.5462 22.985 13.999 46.638 23.821 66.991 12.96 26.855 43.674 35.993 68.06 42.31 35.243 9.1287 76.063 10.578 112.3 10.578 34.109 0 71.746-11.434 104.46-19.909 8.0115-2.0751 28.942-4.7011 36.882-7.0517 30.872-9.139 46.682-17.336 79.849-25.926 22.554-5.8419 46.148-20.875 64.657-35.258 22.942-17.827 40.935-40.096 57.851-63.465 3.403-4.701 6.806-9.4022 10.209-14.103 13.054-18.034 20.418-48.247 20.418-70.517 0-27.08 3.4499-47.477-6.806-74.042-10.096-26.152-32.32-44.064-51.045-63.465-22.265-23.069-39.361-46.724-65.686-60.362-26.846-13.907-65.691-14.46-95.284-24.681-37.3-12.882-82.386-17.207-121.48-17.207h-88.478c-30.354 0-27.186 4.975-56.261 11-20.524 4.253-130.9 102.56-130.9 144.14z" fill-rule="evenodd" stroke-width=".814"/>
  <g stroke="#000">
   <g stroke-linecap="round" stroke-miterlimit="0" stroke-width="11.3">
    <path d="m474.39 373.89a203.07 213.04 0 1 1 -48.01 -320.75"/>
    <path d="m204.97 129.33a151.2 158.44 0 1 1 116.38 259.63"/>
   </g>
   <g stroke-width="5.883">
    <g fill-opacity=".75" fill-rule="evenodd">
     <path d="m504.81 138.86l0.5998-54.294s-0.89972-10.859 7.4975-10.859c8.0974 0 6.5978 10.859 6.5978 10.859l-0.2999 54.294s-0.89972 5.4294 5.998 5.7488c6.8978 0.31938 5.6981-6.0682 5.6981-6.0682l-0.2999-53.336s-0.59979-11.498 6.5978-11.498 5.6981 11.817 5.6981 11.817v54.613s2.2493 4.7108 7.1976 4.4713c4.9484-0.23952 5.7731-4.5511 5.923-4.4314l0.6748-54.334s0-11.498 6.2978-11.817c6.298-0.31936 6.298 11.817 6.298 11.817l-0.2999 57.488s3.3582 46.444-17.146 49.568c-18.148 2.7648 7.1604 165.18 0.39398 170.01-6.4008 4.5715-8.0032 5.3746-14.001 5.694-5.998 0.31937-11.866-1.9703-15.698-6.5974-7.06-8.5244 15.378-167.99 1.8082-170.05-17.683-2.6878-19.836-53.41-19.536-53.09z"/>
     <path d="m38.253 104.52c8.0973-16.288 24.592-18.956 31.79-18.956 7.1976 0 26.587 1.8168 32.089 20.233 5.5727 18.652 3.0583 103.93-17.446 107.06-18.148 2.7648 7.1604 165.18 0.394 170.01-6.4008 4.5714-8.0032 5.3746-14.001 5.694-5.998 0.31937-11.272-0.72461-15.104-5.3516-7.06-8.5244 14.785-167.37 1.2146-169.43-17.683-2.6878-27.034-92.964-18.936-109.25z"/>
    </g>
    <path d="m70.976 105.86a19.888 41.147 0 1 1 1.0615 81.985" stroke-linecap="round"/>
   </g>
  </g>
 </g>
</svg>
